<svg width="64" height="64" viewBox="0 0 64 64" fill="none" xmlns="http://www.w3.org/2000/svg">
<path d="M58 32C58 32.5304 57.7893 33.0391 57.4142 33.4142C57.0391 33.7893 56.5304 34 56 34H22.8275L37.415 48.585C37.6008 48.7708 37.7482 48.9914 37.8488 49.2342C37.9494 49.477 38.0011 49.7372 38.0011 50C38.0011 50.2628 37.9494 50.523 37.8488 50.7658C37.7482 51.0086 37.6008 51.2292 37.415 51.415C37.2292 51.6008 37.0086 51.7482 36.7658 51.8488C36.523 51.9494 36.2628 52.0011 36 52.0011C35.7372 52.0011 35.477 51.9494 35.2342 51.8488C34.9914 51.7482 34.7708 51.6008 34.585 51.415L16.585 33.415C16.399 33.2293 16.2515 33.0087 16.1509 32.7659C16.0502 32.5231 15.9984 32.2628 15.9984 32C15.9984 31.7372 16.0502 31.4769 16.1509 31.2341C16.2515 30.9913 16.399 30.7707 16.585 30.585L34.585 12.585C34.7708 12.3992 34.9914 12.2518 35.2342 12.1512C35.477 12.0506 35.7372 11.9989 36 11.9989C36.2628 11.9989 36.523 12.0506 36.7658 12.1512C37.0086 12.2518 37.2292 12.3992 37.415 12.585C37.6008 12.7708 37.7482 12.9914 37.8488 13.2342C37.9494 13.477 38.0011 13.7372 38.0011 14C38.0011 14.2628 37.9494 14.523 37.8488 14.7658C37.7482 15.0086 37.6008 15.2292 37.415 15.415L22.8275 30H56C56.5304 30 57.0391 30.2107 57.4142 30.5858C57.7893 30.9609 58 31.4696 58 32ZM10 8C9.46957 8 8.96086 8.21071 8.58579 8.58579C8.21071 8.96086 8 9.46957 8 10V54C8 54.5304 8.21071 55.0391 8.58579 55.4142C8.96086 55.7893 9.46957 56 10 56C10.5304 56 11.0391 55.7893 11.4142 55.4142C11.7893 55.0391 12 54.5304 12 54V10C12 9.46957 11.7893 8.96086 11.4142 8.58579C11.0391 8.21071 10.5304 8 10 8Z" fill="#343330"/>
</svg>
