<svg width="32" height="56" viewBox="0 0 32 56" fill="none" xmlns="http://www.w3.org/2000/svg">
<path d="M27.0612 13.0612L17.0612 23.0612C16.9218 23.2011 16.7563 23.312 16.5739 23.3877C16.3916 23.4634 16.1961 23.5024 15.9987 23.5024C15.8013 23.5024 15.6058 23.4634 15.4235 23.3877C15.2411 23.312 15.0756 23.2011 14.9362 23.0612L4.9362 13.0612C4.6544 12.7794 4.49609 12.3972 4.49609 11.9987C4.49609 11.6002 4.6544 11.218 4.9362 10.9362C5.21799 10.6544 5.60018 10.4961 5.9987 10.4961C6.39721 10.4961 6.7794 10.6544 7.0612 10.9362L15.9999 19.875L24.9387 10.935C25.2205 10.6532 25.6027 10.4949 26.0012 10.4949C26.3997 10.4949 26.7819 10.6532 27.0637 10.935C27.3455 11.2168 27.5038 11.599 27.5038 11.9975C27.5038 12.396 27.3455 12.7782 27.0637 13.06L27.0612 13.0612Z" fill="#343330"/>
<path d="M4.9388 42.9388L14.9388 32.9388C15.0782 32.7989 15.2437 32.688 15.4261 32.6123C15.6084 32.5366 15.8039 32.4976 16.0013 32.4976C16.1987 32.4976 16.3942 32.5366 16.5765 32.6123C16.7589 32.688 16.9244 32.7989 17.0638 32.9388L27.0638 42.9388C27.3456 43.2206 27.5039 43.6028 27.5039 44.0013C27.5039 44.3998 27.3456 44.782 27.0638 45.0638C26.782 45.3456 26.3998 45.5039 26.0013 45.5039C25.6028 45.5039 25.2206 45.3456 24.9388 45.0638L16.0001 36.125L7.06131 45.065C6.77951 45.3468 6.39732 45.5051 5.99881 45.5051C5.60029 45.5051 5.2181 45.3468 4.93631 45.065C4.65451 44.7832 4.4962 44.401 4.4962 44.0025C4.4962 43.604 4.65451 43.2218 4.93631 42.94L4.9388 42.9388Z" fill="#343330"/>
</svg>
