<svg width="32" height="56" viewBox="0 0 32 56" fill="none" xmlns="http://www.w3.org/2000/svg">
<path d="M27.0612 37.0612L17.0612 47.0612C16.9218 47.2011 16.7563 47.312 16.5739 47.3877C16.3916 47.4634 16.1961 47.5024 15.9987 47.5024C15.8013 47.5024 15.6058 47.4634 15.4235 47.3877C15.2411 47.312 15.0756 47.2011 14.9362 47.0612L4.9362 37.0612C4.6544 36.7794 4.49609 36.3972 4.49609 35.9987C4.49609 35.6002 4.6544 35.218 4.9362 34.9362C5.21799 34.6544 5.60018 34.4961 5.9987 34.4961C6.39721 34.4961 6.7794 34.6544 7.0612 34.9362L15.9999 43.875L24.9387 34.935C25.2205 34.6532 25.6027 34.4949 26.0012 34.4949C26.3997 34.4949 26.7819 34.6532 27.0637 34.935C27.3455 35.2168 27.5038 35.599 27.5038 35.9975C27.5038 36.396 27.3455 36.7782 27.0637 37.06L27.0612 37.0612Z" fill="#343330"/>
<path d="M4.9388 18.9388L14.9388 8.93877C15.0782 8.79893 15.2437 8.68798 15.4261 8.61227C15.6084 8.53656 15.8039 8.49759 16.0013 8.49759C16.1987 8.49759 16.3942 8.53656 16.5765 8.61227C16.7589 8.68798 16.9245 8.79893 17.0638 8.93877L27.0638 18.9388C27.3456 19.2206 27.5039 19.6028 27.5039 20.0013C27.5039 20.3998 27.3456 20.782 27.0638 21.0638C26.782 21.3456 26.3998 21.5039 26.0013 21.5039C25.6028 21.5039 25.2206 21.3456 24.9388 21.0638L16.0001 12.125L7.06131 21.065C6.77951 21.3468 6.39732 21.5051 5.99881 21.5051C5.60029 21.5051 5.2181 21.3468 4.93631 21.065C4.65451 20.7832 4.4962 20.401 4.4962 20.0025C4.4962 19.604 4.65451 19.2218 4.93631 18.94L4.9388 18.9388Z" fill="#343330"/>
</svg>
